<?xml version="1.0" encoding="utf-8"?>
<!-- Generator: Adobe Illustrator 18.1.0, SVG Export Plug-In . SVG Version: 6.00 Build 0)  -->
<!DOCTYPE svg PUBLIC "-//W3C//DTD SVG 1.1//EN" "http://www.w3.org/Graphics/SVG/1.1/DTD/svg11.dtd">
<svg version="1.1" id="Layer_1" xmlns="http://www.w3.org/2000/svg" xmlns:xlink="http://www.w3.org/1999/xlink" x="0px" y="0px"
	 viewBox="0 0 230 32.8" enable-background="new 0 0 230 32.8" xml:space="preserve">
<g>
	<path fill="#FF4338" d="M16.6,19.6C16.5,19.6,16.5,19.6,16.6,19.6c0,0.2,0,0.3,0,0.5c0,0.9-0.7,1.6-1.6,1.6c-0.4,0-0.7-0.1-1-0.3
		c-0.1,0.3-0.2,0.6-0.2,0.9c0,1.5,1.2,2.8,2.8,2.8s2.8-1.2,2.8-2.8S18.1,19.6,16.6,19.6z"/>
	<g>
		<path fill="#FF4338" stroke="#FF4338" stroke-width="0.8522" stroke-miterlimit="10" d="M68,23.5c3.5,0,5.9-1.1,7.3-1.7
			c0.4-0.2,0.7-0.3,0.6,0.2l-0.2,1c0,0.2-0.1,0.4-0.6,0.6c-1.1,0.6-3.8,1.6-7.5,1.6c-6.6,0-10.2-3.7-8.6-11.6
			C60.4,7,65.2,2.2,72.2,2.2c5.5,0,7,2.9,6.5,5.5c-0.3,1.1-1.2,1.6-2.1,1.6c-0.9,0-1.5-0.6-1.3-1.6c0.2-0.9,0.9-1.4,1.7-1.6
			c-0.6-1.2-2.2-2.2-5-2.2c-6.2,0-9.7,4.8-10.9,10.3C60,19.5,61.6,23.5,68,23.5z"/>
		<path fill="#FF4338" stroke="#FF4338" stroke-width="0.8522" stroke-miterlimit="10" d="M82.8,3h-1.5c-0.4,0-0.4-0.2-0.3-0.5
			l0.1-0.6c0.1-0.5,0.2-0.5,0.5-0.5l3.7-0.2c0.6,0,0.7,0.2,0.5,0.9l-4.3,20.1c-0.1,0.9,0.1,1.3,0.7,1.3c0.5,0,0.8-0.1,1.2-0.2
			c0.3-0.1,0.5-0.1,0.4,0.3l-0.2,0.8c-0.1,0.3-0.2,0.4-0.5,0.5c-0.6,0.2-0.9,0.2-1.8,0.2c-1.1,0-2.5-0.4-2-2.7L83.4,4
			C83.5,3.3,83.4,3,82.8,3z"/>
		<path fill="#FF4338" stroke="#FF4338" stroke-width="0.8522" stroke-miterlimit="10" d="M96.4,8c5.6,0,7.1,3.9,6,9.1
			c-1,4.7-3.7,8.3-9.1,8.3c-5.5,0-7-4-5.9-9.1C88.4,11.6,91.1,8,96.4,8z M89.6,16.7c-0.9,4.2-0.1,7.1,3.8,7.1c3.9,0,6-2.9,6.9-7.1
			c0.9-4.2,0-7.1-3.9-7.1C92.5,9.6,90.4,12.5,89.6,16.7z"/>
		<path fill="#FF4338" stroke="#FF4338" stroke-width="0.8522" stroke-miterlimit="10" d="M119,23.5c0.5,0,0.8-0.1,1.2-0.2
			c0.3-0.1,0.5-0.1,0.4,0.3l-0.2,0.8c-0.1,0.3-0.2,0.4-0.5,0.5c-0.6,0.2-0.9,0.2-1.8,0.2c-1.1,0-2.2-0.3-2-2.2
			c-1.5,1.6-3.4,2.4-5.9,2.4c-3.4,0-4.9-1.5-4-5.7l1.8-8.5c0.2-0.9-0.2-0.9-2.1-0.9c-0.3,0-0.4-0.1-0.3-0.4l0.2-0.7
			c0.1-0.4,0.2-0.5,0.6-0.5l3.7-0.2c0.6,0,0.7,0.2,0.5,0.9l-2.2,10.5c-0.5,2.2,0,3.8,2.7,3.8c3.2,0,5.5-2.2,6.3-6l1.4-6.6
			c0.1-0.7-0.3-0.7-2.1-0.7c-0.3,0-0.4-0.1-0.4-0.4l0.2-0.7c0.1-0.4,0.2-0.5,0.6-0.5l3.7-0.2c0.6,0,0.7,0.2,0.6,0.9l-2.7,13
			C118.1,23,118.4,23.5,119,23.5z"/>
		<path fill="#FF4338" stroke="#FF4338" stroke-width="0.8522" stroke-miterlimit="10" d="M137.4,23.5c0.6,0,0.8-0.1,1.2-0.2
			c0.3-0.1,0.5-0.1,0.4,0.3l-0.2,0.8c-0.1,0.3-0.2,0.4-0.5,0.5c-0.6,0.2-0.9,0.2-1.8,0.2c-1.1,0-2.5-0.4-2-2.7l0.1-0.2
			c-1.5,2.1-3.8,3.2-6.2,3.2c-3.9,0-5.6-3-4.5-8.2c1.1-5.3,4.5-9.1,9.3-9.1c2,0,3,0.6,4,1.4l1.1-5.4c0.2-0.7,0-1-0.6-1h-1.5
			c-0.4,0-0.4-0.2-0.3-0.5l0.1-0.6c0.1-0.5,0.2-0.5,0.5-0.5l3.7-0.2c0.6,0,0.7,0.2,0.5,0.9l-4.3,20.1
			C136.5,23,136.8,23.5,137.4,23.5z M135.7,16.9l1.2-5.7c-0.7-0.9-2-1.5-3.8-1.5c-3.9,0-6.2,3.8-7.1,7.6c-0.7,3.3-0.2,6.3,3.1,6.3
			C132.1,23.7,134.4,21.4,135.7,16.9z"/>
		<path fill="#FF4338" d="M157.1,5.6c-0.8-1.3-2.7-1.8-4.7-1.8c-2.8,0-5,1-5.5,3.6c-1.4,6.8,11.7,2.8,9.7,12.2
			c-0.9,4.4-4.4,5.8-8.6,5.8c-5.1,0-7.3-1.7-6.7-4.9c0.2-1.1,1.1-1.8,2.1-1.8c1,0,1.5,0.5,1.3,1.6c-0.2,0.8-0.9,1.4-1.6,1.6
			c0.7,1.3,2.6,1.8,5,1.8c3.2,0,5.7-1.1,6.4-4.4c1.6-7.5-11.6-3.2-9.7-12.1c0.8-3.6,3.5-5.1,7.4-5.1c5.2,0,7.3,1.9,6.6,5
			c-0.2,1.1-1.2,1.6-2.1,1.6c-0.9,0-1.5-0.6-1.2-1.6C155.8,6.3,156.4,5.8,157.1,5.6z"/>
		<path fill="#FF4338" d="M164.2,23.5c0.6,0,0.8-0.1,1.2-0.2c0.3-0.1,0.5-0.1,0.4,0.3l-0.2,0.8c-0.1,0.3-0.2,0.4-0.5,0.5
			c-0.6,0.2-0.9,0.2-1.8,0.2c-1.1,0-2.4-0.4-1.9-2.7l2.4-11.3c0.1-0.7,0-0.9-0.6-1h-1.5c-0.4,0-0.4-0.2-0.3-0.5l0.1-0.6
			c0.1-0.4,0.2-0.5,0.5-0.5l3.7-0.2c0.6,0,0.7,0.2,0.5,0.9l-2.7,12.9C163.3,23,163.5,23.5,164.2,23.5z M166.9,1.2
			c0.8,0,1.4,0.7,1.2,1.7c-0.3,1.1-1.2,1.7-2.1,1.7c-0.8,0-1.4-0.6-1.2-1.6C165,1.9,165.9,1.2,166.9,1.2z"/>
		<path fill="#FF4338" d="M179.3,25.2l0.7-3c-1.5,2.1-3.8,3.2-6.2,3.2c-3.9,0-5.6-3-4.5-8.2c1.1-5.3,4.5-9.1,9.3-9.1
			c2,0,3,0.6,4,1.4l0-0.2c0.2-0.6,0.3-0.9,0.9-0.9l3.5,0.2c0.4,0,0.5,0.1,0.4,0.5l-0.2,0.8c-0.1,0.3-0.2,0.3-0.6,0.4h-1.3
			c-0.8,0.1-0.9,0.4-1.1,1.4l-2.9,13.5c-1.2,5.4-4.2,7.7-9.1,7.7c-3,0-5.8-1-5.2-4.2c0.2-0.8,1-1.4,1.7-1.4c0.8,0,1.3,0.5,1.2,1.4
			c-0.1,0.6-0.6,1.1-1.1,1.3c0.5,0.9,2,1.3,3.7,1.3C175.9,31.1,178.4,29.4,179.3,25.2z M181,16.9l1.2-5.7c-0.8-0.9-2-1.5-3.8-1.5
			c-3.9,0-6.2,3.8-7,7.6c-0.7,3.3-0.2,6.3,3.1,6.3C177.4,23.7,179.7,21.4,181,16.9z"/>
		<path fill="#FF4338" d="M198.6,8c3.2,0,5.1,1.8,4.3,5.5l-1.8,8.7c-0.2,0.9,0,1.3,0.7,1.3c0.6,0,0.8-0.1,1.2-0.2
			c0.3-0.1,0.5-0.1,0.4,0.3l-0.2,0.8c-0.1,0.3-0.2,0.4-0.5,0.5c-0.6,0.2-0.9,0.2-1.8,0.2c-1.1,0-2.4-0.4-1.9-2.7l1.8-8.6
			c0.6-2.5-0.3-4-2.8-4c-3.2,0-5.3,2.5-6.2,6.8l-1.7,7.9c-0.1,0.3-0.2,0.4-0.5,0.4h-1.2c-0.3,0-0.4-0.1-0.4-0.4L192.3,4
			c0.1-0.7,0-0.9-0.6-1h-1.5c-0.4,0-0.4-0.2-0.3-0.5l0.1-0.6c0.1-0.4,0.2-0.5,0.5-0.5l3.7-0.2c0.6,0,0.7,0.2,0.5,0.9l-1.9,9.1
			C194.2,9,196.3,8,198.6,8z"/>
		<path fill="#FF4338" d="M210,8.6l1.4-3.8c0.1-0.4,0.4-0.5,1-0.5c0.7,0,0.7,0.1,0.6,0.5L212,8.6h4.1c0.4,0,0.5,0.1,0.4,0.3
			l-0.2,0.9c-0.1,0.2-0.2,0.4-0.6,0.4h-4.1l-2.1,9.9c-0.6,2.9,0.4,3.3,1.8,3.3c0.8,0,1.6-0.1,2.2-0.4c0.4-0.2,0.5-0.1,0.4,0.3
			l-0.2,0.9c-0.1,0.3-0.2,0.4-0.6,0.6c-0.8,0.3-1.5,0.4-2.4,0.4c-2.7,0-4.2-1.1-3.5-4.5l2.2-10.4h-2.1c-0.4,0-0.5-0.1-0.4-0.4
			l0.2-0.8c0.1-0.3,0.2-0.5,0.5-0.5H210z"/>
	</g>
	<g>
		<g>
			<path fill="#FF4338" d="M220.6,6.7c-0.1,0-0.2,0-0.2-0.2l0.1-0.4c0-0.2,0.1-0.2,0.3-0.2h3.5c0.2,0,0.2,0,0.2,0.2l-0.1,0.4
				c0,0.2-0.1,0.2-0.2,0.2h-1.3l-0.8,3.7c-0.1,0.2-0.1,0.3-0.4,0.3h-0.5c-0.2,0-0.3-0.1-0.2-0.3l0.8-3.7H220.6z M226.9,9.8
				L226.9,9.8l2-3.7c0.1-0.1,0.1-0.1,0.2-0.1h0.8c0.1,0,0.1,0.1,0.1,0.2l-0.9,4.3c-0.1,0.2-0.1,0.3-0.3,0.3h-0.4
				c-0.2,0-0.3-0.1-0.2-0.3l0.5-2.4l-1.5,2.7c-0.1,0.1-0.1,0.1-0.2,0.1h-1c-0.1,0-0.1,0-0.1-0.1l-0.4-2.9l-0.5,2.6
				c-0.1,0.2-0.1,0.3-0.4,0.3h-0.2c-0.2,0-0.3-0.1-0.2-0.3l0.9-4.3c0-0.1,0.1-0.2,0.2-0.2h1c0.1,0,0.1,0.1,0.1,0.2L226.9,9.8z"/>
		</g>
	</g>
	<path fill="#FF4338" d="M31.8,13.8c-0.2,0-0.3,0-0.5,0c0.2-0.7,0.3-1.4,0.3-2.2c0-5-4.1-9.1-9.1-9.1c-4.2,0-7.8,2.9-8.8,6.8
		c-0.6-0.3-1.3-0.5-2.1-0.5c-2,0-3.8,1.2-4.6,2.9c-0.2,0-0.3,0-0.5,0c-3.6,0-6.6,2.9-6.6,6.6c0,3.5,2.8,6.4,6.2,6.6H8
		c0-0.2,0-0.5,0-0.8c0-4.5,3.7-8.2,8.2-8.2c2.2,0,4.3,0.9,5.8,2.4c0.7,0.8,1.3,1.7,1.8,2.6c0.4,1,0.3,2.4,1.2,3.2
		c0.4,0.5,1.1,0.7,1.7,0.7c1.1,0.1,4.5-0.1,5.1-0.1c3.1,0,5.6-2.5,5.6-5.6S34.9,13.8,31.8,13.8z M28.5,24.3
		C28.5,24.3,28.5,24.2,28.5,24.3C28.5,24.2,28.5,24.3,28.5,24.3z M29.2,23c0-0.2,0.1-0.3,0.1-0.5C29.2,22.7,29.2,22.9,29.2,23z
		 M28.8,23.9c0,0,0-0.1,0.1-0.1C28.9,23.8,28.9,23.9,28.8,23.9z M29,23.5c0-0.1,0-0.2,0.1-0.2C29.1,23.3,29.1,23.4,29,23.5z"/>
</g>
</svg>
