<?xml version="1.0" encoding="utf-8"?>
<!-- Generator: Adobe Illustrator 17.1.0, SVG Export Plug-In . SVG Version: 6.00 Build 0)  -->
<!DOCTYPE svg PUBLIC "-//W3C//DTD SVG 1.1//EN" "http://www.w3.org/Graphics/SVG/1.1/DTD/svg11.dtd">
<svg version="1.1" id="Layer_1" xmlns="http://www.w3.org/2000/svg" xmlns:xlink="http://www.w3.org/1999/xlink" x="0px" y="0px"
	 viewBox="0 0 100 50" enable-background="new 0 0 100 50" xml:space="preserve">
<g>
	<g>
		<path fill="#E8E8E7" d="M10.083,13.092h4.863l0.001,2.328h0.084c1.039-1.498,2.744-2.703,4.823-2.703
			c2.287,0,3.742,1.04,4.448,2.786h0.083c0.498-0.789,1.289-1.539,2.079-2.038c0.832-0.499,1.787-0.748,2.828-0.748
			c3.659,0,5.28,2.91,5.28,7.775v12.93h-5.447V21.406c0-2.286-0.25-4.158-1.871-4.158c-0.956,0-1.705,0.666-2.038,1.83
			c-0.124,0.333-0.167,0.873-0.167,1.455v12.889h-5.446V20.658c0-1.496-0.125-3.409-1.83-3.409c-0.831,0-1.663,0.583-2.037,1.83
			c-0.124,0.374-0.208,0.957-0.208,1.539v12.805h-5.446L10.083,13.092z"/>
		<path fill="#E8E8E7" d="M51.025,28.707l0.001,4.707h-4.864l-0.002-2.018h-0.125c-1.08,1.555-2.703,2.354-4.49,2.354
			c-3.078,0-5.364-2.606-5.364-6.22c0-5.421,4.699-7.608,9.313-7.649v-0.462c0-1.639-0.335-1.938-2.289-1.938
			c-1.621,0-5.879,0.007-5.879,0.007l1.628-4.376c0,0,3.166,0,6.036,0c6.195,0,6.034,3.786,6.034,7.988V28.707z M45.662,23.411
			c-1.788,0.043-4.324,0.672-4.324,3.53c0,2.018,1.123,2.776,1.955,2.776c0.913,0,1.871-0.548,2.244-1.766
			c0.084-0.295,0.125-0.59,0.125-0.968V23.411z"/>
		<g>
			<path fill="#3DBCB2" d="M68.127,15.123l-0.003-2.031l-4.852,0.012l0.009,2.066h-0.084c-0.79-1.58-2.12-2.452-3.741-2.452
				c-3.742,0-6.819,3.949-6.819,10.726c0,4.865,1.787,9.854,6.319,9.854c1.538,0,2.952-0.748,3.659-2.037h0.084v1.246
				c0,3.119-1.081,4.949-3.826,4.949c-1.579,0-3.5-0.021-3.5-0.021l-1.575,4.302c0,0,3.371,0,5.284,0
				c2.952,0,5.113-0.831,6.61-2.245c1.581-1.541,2.41-3.876,2.449-8.038c-1.625-1.89-2.322-4.974-2.322-8.011
				C65.818,19.788,66.715,16.957,68.127,15.123z M62.698,25.613c0,0.54-0.042,1.164-0.25,1.62c-0.416,1.081-1.081,1.455-1.788,1.455
				c-1.58,0-2.662-1.912-2.662-5.696c0-3.326,0.791-5.986,2.745-5.986c0.916,0,1.498,0.79,1.746,1.663
				c0.125,0.415,0.208,0.956,0.208,1.496V25.613z"/>
			<path fill="#3DBCB2" d="M82.392,13.092l-4.853,0.012l0.009,2.066h-0.084c-0.79-1.58-2.12-2.452-3.742-2.452
				c-1.724,0-3.306,0.84-4.51,2.406c-1.412,1.834-2.309,4.664-2.309,8.32c0,3.037,0.697,6.121,2.322,8.011
				c0.978,1.137,2.294,1.843,3.997,1.843c1.539,0,2.953-0.748,3.659-2.037h0.084v1.246c0,3.119-1.081,4.949-3.826,4.949
				c-1.578,0-3.076-0.021-3.076-0.021l-1.575,4.302c0,0,2.947,0,4.86,0c2.952,0,5.114-0.831,6.611-2.245
				c1.622-1.58,2.453-3.991,2.453-8.357L82.392,13.092z M76.966,25.613c0,0.54-0.042,1.164-0.251,1.62
				c-0.414,1.081-1.08,1.455-1.787,1.455c-1.58,0-2.66-1.912-2.66-5.696c0-3.326,0.79-5.986,2.744-5.986
				c0.915,0,1.497,0.79,1.746,1.663c0.125,0.415,0.209,0.956,0.209,1.496V25.613z"/>
		</g>
		<g>
			<g>
				<g>
					<polygon fill="#E8E8E7" points="5.439,13.111 5.439,16.881 1.868,16.881 1.868,33.443 7.314,33.443 7.314,13.111 					"/>
				</g>
				<rect x="1.868" y="13.111" fill="#3DBCB2" width="2.723" height="2.923"/>
			</g>
		</g>
		<path fill="#E8E8E7" d="M98.902,28.707l0.002,4.707H94.04l-0.002-2.018h-0.124c-1.081,1.555-2.703,2.354-4.49,2.354
			c-3.077,0-5.364-2.606-5.364-6.22c0-5.421,4.698-7.608,9.313-7.649v-0.462c0-1.639-0.335-1.938-2.289-1.938
			c-1.621,0-5.879,0.007-5.879,0.007l1.628-4.376c0,0,3.166,0,6.037,0c6.194,0,6.033,3.786,6.033,7.988V28.707z M93.539,23.411
			c-1.788,0.043-4.324,0.672-4.324,3.53c0,2.018,1.123,2.776,1.955,2.776c0.913,0,1.871-0.548,2.244-1.766
			c0.084-0.295,0.125-0.59,0.125-0.968V23.411z"/>
	</g>
</g>
</svg>
